# Blender v2.83.0 OBJ File: ''
# www.blender.org
o Cylinder
v -0.000000 -0.084309 0.167795
v -0.000000 -0.084309 -0.161181
v 0.059615 -0.059616 0.167795
v 0.059615 -0.059616 -0.161181
v 0.084309 -0.000000 0.167795
v 0.084309 -0.000000 -0.161181
v 0.059615 0.059615 0.167795
v 0.059615 0.059616 -0.161181
v -0.000000 0.084309 0.167795
v -0.000000 0.084309 -0.161181
v -0.059616 0.059615 0.167795
v -0.059616 0.059615 -0.161181
v -0.084309 -0.000000 0.167795
v -0.084309 -0.000000 -0.161181
v -0.059616 -0.059616 0.167795
v -0.059616 -0.059616 -0.161181
v -0.000000 -0.000000 -0.329799
vt 1.000000 0.500000
vt 1.000000 1.000000
vt 0.875000 1.000000
vt 0.875000 0.500000
vt 0.750000 1.000000
vt 0.750000 0.500000
vt 0.625000 1.000000
vt 0.625000 0.500000
vt 0.500000 1.000000
vt 0.500000 0.500000
vt 0.375000 1.000000
vt 0.375000 0.500000
vt 0.250000 1.000000
vt 0.250000 0.500000
vt 0.419706 0.419706
vt 0.250000 0.250000
vt 0.490000 0.250000
vt 0.125000 1.000000
vt 0.125000 0.500000
vt 0.000000 1.000000
vt 0.000000 0.500000
vt 0.750000 0.490000
vt 0.919706 0.419706
vt 0.990000 0.250000
vt 0.919706 0.080294
vt 0.750000 0.010000
vt 0.580294 0.080294
vt 0.510000 0.250000
vt 0.580294 0.419706
vt 0.250000 0.010000
vt 0.080294 0.080294
vt 0.419706 0.080294
vt 0.010000 0.250000
vt 0.080294 0.419706
vt 0.250000 0.490000
vn 0.3827 -0.9239 -0.0000
vn 0.9239 -0.3827 -0.0000
vn 0.9239 0.3827 0.0000
vn 0.3827 0.9239 0.0000
vn -0.3827 0.9239 -0.0000
vn -0.9239 0.3827 -0.0000
vn 0.8387 -0.3474 -0.4194
vn -0.9239 -0.3827 -0.0000
vn -0.3827 -0.9239 -0.0000
vn 0.0000 0.0000 1.0000
vn -0.3474 0.8387 -0.4194
vn 0.8387 0.3474 -0.4194
vn -0.8387 -0.3474 -0.4194
vn 0.3474 0.8387 -0.4194
vn -0.3474 -0.8387 -0.4194
vn 0.3474 -0.8387 -0.4194
vn -0.8387 0.3474 -0.4194
s off
f 1/1/1 2/2/1 4/3/1 3/4/1
f 3/4/2 4/3/2 6/5/2 5/6/2
f 5/6/3 6/5/3 8/7/3 7/8/3
f 7/8/4 8/7/4 10/9/4 9/10/4
f 9/10/5 10/9/5 12/11/5 11/12/5
f 11/12/6 12/11/6 14/13/6 13/14/6
f 4/15/7 17/16/7 6/17/7
f 13/14/8 14/13/8 16/18/8 15/19/8
f 15/19/9 16/18/9 2/20/9 1/21/9
f 1/22/10 3/23/10 5/24/10 7/25/10 9/26/10 11/27/10 13/28/10 15/29/10
f 10/30/11 17/16/11 12/31/11
f 6/17/12 17/16/12 8/32/12
f 14/33/13 17/16/13 16/34/13
f 8/32/14 17/16/14 10/30/14
f 16/34/15 17/16/15 2/35/15
f 17/16/16 4/15/16 2/35/16
f 12/31/17 17/16/17 14/33/17
